Coordinates
version=1
nRows=24
nColumns=22
inDegrees=yes

Units are S.I. units (second, meters, Newtons, ...)
If the header above contains a line with 'inDegrees', this indicates whether rotational values are in degrees (yes) or radians (no).

endheader
time	pelvis_tilt	pelvis_list	pelvis_rotation	pelvis_tx	pelvis_ty	pelvis_tz	hip_flexion_r	hip_adduction_r	hip_rotation_r	knee_angle_r	ankle_angle_r	subtalar_angle_r	hip_flexion_l	hip_adduction_l	hip_rotation_l	knee_angle_l	ankle_angle_l	subtalar_angle_l	lumbar_extension	lumbar_bending	lumbar_rotation
      3.84000000	      2.14259226	      2.64606514	     82.07498511	      0.78274923	      1.06353041	      0.16914150	     15.94310282	      1.85400002	      0.88843165	    -15.60890075	      1.75126951	      2.17167186	     -9.05685569	      1.65556102	     13.74343022	    -26.40890723	     14.50552217	      2.49482150	     -3.29615395	     -0.31244272	    -10.81462633
      3.85000000	      2.45886347	      2.73431772	     82.77174165	      0.78568720	      1.06448107	      0.16213647	     15.47785098	      2.12777317	      0.30904585	    -15.85253566	      2.15867016	      2.36013383	     -8.55089705	      1.18799655	     13.80899776	    -28.12365291	     13.56049353	      3.61709788	     -3.26598369	      0.06781168	    -10.91069724
      3.86000000	      2.77767461	      2.85529346	     83.48980297	      0.78856097	      1.06546155	      0.15521678	     14.91424638	      2.41258215	     -0.31578926	    -15.96283339	      2.57106236	      2.43657238	     -8.00652196	      0.71447000	     13.87815175	    -29.90733283	     12.48068376	      4.82829800	     -3.26848150	      0.43995069	    -10.99905019
      3.87000000	      3.09185770	      3.00754105	     84.21754618	      0.79137721	      1.06645772	      0.14839045	     14.26109910	      2.70447398	     -0.98485830	    -15.94535795	      2.96866981	      2.43065165	     -7.42710224	      0.24228837	     13.94121063	    -31.74446698	     11.26621892	      6.12989862	     -3.29967309	      0.79585128	    -11.05766090
      3.88000000	      3.39544308	      3.18685585	     84.93979416	      0.79414205	      1.06746011	      0.14168640	     13.53867822	      3.00096529	     -1.68528663	    -15.82102190	      3.33414411	      2.37953006	     -6.81642873	     -0.21995923	     13.99355463	    -33.61450466	      9.92384654	      7.49435308	     -3.35868976	      1.13372700	    -11.07675534
      3.89000000	      3.68543555	      3.39511542	     85.64231402	      0.79686720	      1.06844969	      0.13515311	     12.76917980	      3.30249074	     -2.38238188	    -15.63018910	      3.67288664	      2.31897415	     -6.17386167	     -0.66419550	     14.03357082	    -35.52333861	      8.48683153	      8.89758097	     -3.45520187	      1.45191512	    -11.05894579
      3.90000000	      3.96733869	      3.62161018	     86.32864610	      0.79955417	      1.06941787	      0.12875308	     11.96380935	      3.61180247	     -3.10327803	    -15.37725549	      4.02753863	      2.27750887	     -5.50092156	     -1.10079112	     14.06194483	    -37.44856104	      6.99866832	     10.26604348	     -3.57010840	      1.75553774	    -10.98912930
      3.91000000	      4.22784857	      3.86065450	     86.97030544	      0.80219182	      1.07034772	      0.12256166	     11.15404304	      3.91873600	     -3.77741876	    -15.10011449	      4.37289487	      2.27619254	     -4.78682758	     -1.50670632	     14.05483045	    -39.39836072	      5.47891948	     11.49892263	     -3.70878572	      2.04366261	    -10.87777628
      3.92000000	      4.45605833	      4.09609194	     87.54740808	      0.80485464	      1.07125340	      0.11654533	     10.35490888	      4.21684164	     -4.38955049	    -14.79661270	      4.68876085	      2.32792339	     -4.03688864	     -1.87574041	     14.00018259	    -41.33520430	      3.94421551	     12.70007609	     -3.84611732	      2.28886179	    -10.67081853
      3.93000000	      4.66857029	      4.32480572	     88.08233532	      0.80745964	      1.07211073	      0.11072470	      9.57856755	      4.51381814	     -4.94295731	    -14.48921996	      5.01249018	      2.43387168	     -3.24298960	     -2.22311061	     13.91591226	    -43.27053071	      2.45220812	     13.70076285	     -3.98289927	      2.52839051	    -10.43004307
      3.94000000	      4.83443270	      4.53575781	     88.52888278	      0.81010971	      1.07293667	      0.10509815	      8.84360146	      4.78382980	     -5.39654469	    -14.18895838	      5.32615641	      2.60982481	     -2.41892121	     -2.51645692	     13.77041779	    -45.16288147	      1.01062680	     14.67000639	     -4.10702005	      2.71252528	    -10.08372908
      3.95000000	      5.01083546	      4.72795842	     88.95149518	      0.81270734	      1.07370810	      0.09963367	      8.12482698	      5.07699029	     -5.80708387	    -13.85542503	      5.66046283	      2.80674690	     -1.55542939	     -2.82288084	     13.61693610	    -47.02650448	     -0.30885895	     15.36011162	     -4.21417560	      2.91897072	     -9.73348353
      3.96000000	      5.15236968	      4.89171752	     89.30046241	      0.81535715	      1.07444124	      0.09435856	      7.45084841	      5.35054167	     -6.13750258	    -13.52042332	      5.98334857	      3.07478588	     -0.66090399	     -3.09733055	     13.41176123	    -48.82186812	     -1.48245146	     16.04098375	     -4.29899940	      3.08292384	     -9.31545160
      3.97000000	      5.26669598	      5.03310143	     89.60032677	      0.81801109	      1.07514320	      0.08925729	      6.80212369	      5.60661769	     -6.41783893	    -13.16167152	      6.29609332	      3.37108134	      0.25539196	     -3.35522378	     13.16206629	    -50.53452401	     -2.47783451	     16.58594164	     -4.36797732	      3.21878669	     -8.86492796
      3.98000000	      5.39541305	      5.16970964	     89.87325077	      0.82067259	      1.07583951	      0.08428779	      6.12569137	      5.89427635	     -6.65028995	    -12.71962042	      6.55406378	      3.57921535	      1.17093377	     -3.65322915	     12.87470475	    -52.14874591	     -3.25225484	     16.82341290	     -4.43771828	      3.37141137	     -8.41376096
      3.99000000	      5.52557000	      5.24155395	     90.11977166	      0.82333766	      1.07640300	      0.07950211	      5.51750453	      6.19091782	     -6.84598416	    -12.25278865	      6.85485427	      3.95355079	      2.15829219	     -3.98066225	     12.54827701	    -53.67168617	     -3.71662016	     16.91531562	     -4.44693572	      3.52959297	     -7.96056294
      4.00000000	      5.67345702	      5.32678919	     90.34227237	      0.82602007	      1.07699002	      0.07484775	      4.86451845	      6.52033921	     -7.02417269	    -11.70547001	      7.05880977	      4.21707705	      3.11120752	     -4.35934518	     12.18758525	    -55.05299230	     -3.93208113	     16.71953992	     -4.48234020	      3.70195946	     -7.48766247
      4.01000000	      5.80974781	      5.36424876	     90.54688936	      0.82869525	      1.07747980	      0.07032933	      4.25530910	      6.84132906	     -7.18435384	    -11.12741594	      7.28624352	      4.64345955	      4.10250853	     -4.76867044	     11.75973267	    -56.29656560	     -3.89633177	     15.98082330	     -4.47082680	      3.86416311	     -7.04826105
      4.02000000	      5.97440512	      5.41959687	     90.73345444	      0.83136894	      1.07798076	      0.06591152	      3.60005420	      7.20323623	     -7.31786427	    -10.48048684	      7.44479491	      4.98592533	      5.04383171	     -5.24514011	     11.30683472	    -57.38083614	     -3.58408317	     15.03536930	     -4.48757827	      4.05808592	     -6.60048269
      4.03000000	      6.15084625	      5.47279933	     90.89971159	      0.83403426	      1.07845496	      0.06159227	      2.93721939	      7.58273864	     -7.42108175	     -9.80079435	      7.58006117	      5.34511438	      5.95177077	     -5.76614126	     10.83185099	    -58.30170672	     -3.03625687	     13.86384785	     -4.50772392	      4.26596390	     -6.15393056
      4.04000000	      6.31562621	      5.53317043	     91.04014449	      0.83668422	      1.07892063	      0.05735619	      2.27531422	      7.95001068	     -7.51344268	     -9.12755453	      7.69516745	      5.72813334	      6.80062552	     -6.29971128	     10.33470287	    -59.04201681	     -2.28925041	     12.49487411	     -4.54093472	      4.46068675	     -5.70037946
      4.05000000	      6.47083055	      5.60401243	     91.15245355	      0.83928115	      1.07939045	      0.05319196	      1.61255894	      8.30436831	     -7.57892515	     -8.46670370	      7.78447836	      6.11092084	      7.58100961	     -6.83720075	      9.82390209	    -59.60048449	     -1.42811755	     11.07240660	     -4.58951634	      4.65201246	     -5.24075256
      4.06000000	      6.61277520	      5.69026991	     91.23490563	      0.84185192	      1.07987151	      0.04908671	      0.95276308	      8.64217386	     -7.61845780	     -7.83791307	      7.84935547	      6.48154692	      8.27926465	     -7.36965433	      9.30662554	    -59.97311850	     -0.52169834	      9.65500718	     -4.65718295	      4.82963118	     -4.77407743
      4.07000000	      6.73566550	      5.79202924	     91.28782713	      0.84437658	      1.08036879	      0.04503389	      0.30005085	      8.95568556	     -7.63092654	     -7.25069412	      7.89605827	      6.81331637	      8.88824918	     -7.88046021	      8.79077358	    -60.15807357	      0.38165327	      8.32494365	     -4.74501565	      4.98887734	     -4.30446226
